# xmcd CD database file
#
# Track frame offsets:
#	150
#	18692
#	40994
#	51672
#	67367
#	81850
#	96720
#	113431
#	129605
#	144451
#	163091
#	176689
#	192047
#	207508
#	221162
#	233246
#	246703
#	258873
#	273460
#	287850
#	305716
#
# Disc length: 4295 seconds
#
# Revision: 0
# Processed by: cddbd v1.5.1PL2 Copyright (c) Steve Scherf et al.
# Submitted via: Feurio! 1.68 - http://www.feurio.com
#
DISCID=5c10c515
DTITLE=Jools Holland and His Rhythm and Blues Orchestra - Small Big Band World
DYEAR=1900
DGENRE=Bluesrock
TTITLE0=Jools Holland - I Put A Spell On Yoy - David Gilmour
TTITLE1=Jools Holland - Horse To The Water - George Harrison
TTITLE2=Jools Holland - Mademoiselle Will Decide - Marc Knopfler
TTITLE3=Jools Holland - Will It Go Round In Circles - Paul Weller
TTITLE4=Jools Holland - I'm Ready - Stevie Winwood
TTITLE5=Jools Holland - Revolution - Stereophonics
TTITLE6=Jools Holland - Nobody But You - Ruby Turner
TTITLE7=Jools Holland - Oranges and Lemons Again - Suggs
TTITLE8=Jools Holland - I'm in the Mood For Love - Jarimoquai
TTITLE9=Jools Holland - Sad Song - Oasis
TTITLE10=Jools Holland - Seventh Son - Sting
TTITLE11=Jools Holland - The Hand That Changed - Dr. John
TTITLE12=Jools Holland - Weeping Willow Rag - Scott Joplin
TTITLE13=Jools Holland - Charleston Rag - Eubie Blake
TTITLE14=Jools Holland, - The Return of the Blues Cowboy - Joe Strummer
TTITLE15=Jools Holland - T-Bone Shuffle - Mick Hucknall
TTITLE16=Jools Holland - Fly Me To The Moon - Huey Morgan
TTITLE17=Jools Holland - All That You Are - Eric Bibb
TTITLE18=Jools Holland - Smokin
TTITLE19=Jools Holland - It's So Blue
TTITLE20=Jools Holland - River Boogie Woogie
EXTD=
EXTT0=
EXTT1=
EXTT2=
EXTT3=
EXTT4=
EXTT5=
EXTT6=
EXTT7=
EXTT8=
EXTT9=
EXTT10=
EXTT11=
EXTT12=
EXTT13=
EXTT14=
EXTT15=
EXTT16=
EXTT17=
EXTT18=
EXTT19=
EXTT20=
PLAYORDER=
